<svg width="369" height="151" viewBox="0 0 369 151" fill="none" xmlns="http://www.w3.org/2000/svg">
<path d="M5.39338 118.065V77.3778H17.1928V118.065H5.39338ZM11.2931 71.4781C9.52995 71.4781 8.03807 70.8678 6.81745 69.6472C5.59682 68.4266 4.98651 66.9347 4.98651 65.1716C4.98651 63.3632 5.59682 61.8713 6.81745 60.6959C8.03807 59.4753 9.52995 58.865 11.2931 58.865C13.1014 58.865 14.5933 59.4753 15.7687 60.6959C16.9893 61.8713 17.5996 63.3632 17.5996 65.1716C17.5996 66.9347 16.9893 68.4266 15.7687 69.6472C14.5933 70.8678 13.1014 71.4781 11.2931 71.4781Z" fill="#FF66BF"/>
<path d="M28.2716 118.065V57.0341H49.0222C53.9047 57.0341 58.3352 57.8252 62.3135 59.4075C66.337 60.9898 69.7955 63.1824 72.6888 65.9853C75.6274 68.743 77.8878 71.9754 79.4701 75.6825C81.0524 79.3896 81.8435 83.3453 81.8435 87.5497C81.8435 91.7541 81.0524 95.7098 79.4701 99.4169C77.8878 103.124 75.6274 106.379 72.6888 109.182C69.7955 111.94 66.337 114.11 62.3135 115.692C58.3352 117.274 53.9047 118.065 49.0222 118.065H28.2716ZM40.071 107.08H47.9372C51.3731 107.08 54.402 106.582 57.0241 105.588C59.6462 104.548 61.8388 103.147 63.6019 101.383C65.4103 99.5751 66.7665 97.4955 67.6707 95.1447C68.6201 92.7939 69.0947 90.2622 69.0947 87.5497C69.0947 84.8372 68.6201 82.3055 67.6707 79.9547C66.7665 77.5586 65.4103 75.4791 63.6019 73.7159C61.8388 71.9076 59.6462 70.5061 57.0241 69.5116C54.402 68.517 51.3731 68.0197 47.9372 68.0197H40.071V107.08ZM111.028 119.422C106.462 119.422 102.439 118.472 98.9577 116.573C95.4766 114.675 92.7641 112.075 90.8202 108.775C88.8762 105.43 87.9042 101.609 87.9042 97.3147C87.9042 93.2007 88.8536 89.5615 90.7524 86.3969C92.6511 83.1871 95.2054 80.6554 98.4152 78.8019C101.67 76.9483 105.264 76.0216 109.197 76.0216C113.221 76.0216 116.815 76.9483 119.98 78.8019C123.144 80.6102 125.631 83.0967 127.439 86.2612C129.292 89.4258 130.219 93.0199 130.219 97.0434V101.18H105.4C104.27 101.18 103.185 101.112 102.145 100.977C101.105 100.841 100.065 100.683 99.0255 100.502C99.568 103.214 100.902 105.43 103.026 107.147C105.196 108.82 107.954 109.657 111.3 109.657C113.876 109.657 116.182 109.137 118.216 108.097C120.296 107.057 121.991 105.769 123.302 104.232L125.879 114.81C123.845 116.347 121.539 117.5 118.962 118.269C116.431 119.037 113.786 119.422 111.028 119.422ZM98.7542 93.3816C101.015 92.8843 103.23 92.6356 105.4 92.6356H112.588C113.854 92.6356 115.052 92.6808 116.182 92.7712C117.312 92.8617 118.375 93.0199 119.369 93.2459C118.691 90.8047 117.448 88.8833 115.64 87.4819C113.876 86.0804 111.684 85.3797 109.062 85.3797C106.575 85.3797 104.405 86.103 102.552 87.5497C100.743 88.9511 99.4776 90.8951 98.7542 93.3816ZM136.761 118.065V77.3778H147.34V81.8534C148.786 79.9547 150.572 78.508 152.697 77.5134C154.822 76.5189 157.105 76.0216 159.546 76.0216C162.439 76.0216 165.129 76.7223 167.616 78.1237C170.147 79.48 172.182 81.4918 173.719 84.1591C175.301 86.7811 176.092 89.9683 176.092 93.7206V118.065H164.293V95.2803C164.293 93.0199 163.615 91.0081 162.259 89.245C160.902 87.4819 158.958 86.6003 156.427 86.6003C154.392 86.6003 152.561 87.301 150.934 88.7025C149.352 90.0587 148.56 92.2061 148.56 95.1447V118.065H136.761ZM187.663 118.065V86.7359H180.068V77.3778H187.866V63.8153H199.259V77.3778H207.328V86.7359H199.462V118.065H187.663ZM229.738 119.15C225.986 119.15 222.573 118.178 219.499 116.234C216.424 114.29 213.961 111.714 212.107 108.504C210.299 105.249 209.395 101.655 209.395 97.7216C209.395 93.7884 210.299 90.1944 212.107 86.9394C213.961 83.6844 216.424 81.1075 219.499 79.2087C222.573 77.2648 225.986 76.2928 229.738 76.2928C232.36 76.2928 234.756 76.7675 236.926 77.7169C239.096 78.621 240.95 79.8869 242.487 81.5144V77.3778H252.659V118.065H242.487V113.929C240.95 115.556 239.096 116.845 236.926 117.794C234.756 118.698 232.36 119.15 229.738 119.15ZM231.162 108.775C233.152 108.775 234.96 108.278 236.587 107.283C238.215 106.289 239.503 104.955 240.453 103.282C241.447 101.609 241.945 99.7559 241.945 97.7216C241.945 95.6872 241.447 93.8336 240.453 92.1609C239.503 90.4882 238.215 89.1546 236.587 88.16C234.96 87.1654 233.152 86.6681 231.162 86.6681C229.173 86.6681 227.365 87.1654 225.737 88.16C224.11 89.1546 222.799 90.4882 221.804 92.1609C220.855 93.8336 220.38 95.6872 220.38 97.7216C220.38 99.7559 220.855 101.609 221.804 103.282C222.799 104.955 224.11 106.289 225.737 107.283C227.365 108.278 229.173 108.775 231.162 108.775ZM261.725 118.065V52.9653H273.524V118.065H261.725Z" fill="black"/>
<path d="M319.653 119.15C315.9 119.15 312.487 118.178 309.413 116.234C306.339 114.29 303.875 111.714 302.021 108.504C300.213 105.249 299.309 101.655 299.309 97.7216C299.309 93.7884 300.213 90.1944 302.021 86.9394C303.875 83.6844 306.339 81.1075 309.413 79.2087C312.487 77.2648 315.9 76.2928 319.653 76.2928C322.275 76.2928 324.671 76.7675 326.841 77.7169C329.011 78.621 330.864 79.8869 332.401 81.5144V77.3778H342.573V118.065H332.401V113.929C330.864 115.556 329.011 116.845 326.841 117.794C324.671 118.698 322.275 119.15 319.653 119.15ZM321.077 108.775C323.066 108.775 324.874 108.278 326.502 107.283C328.129 106.289 329.418 104.955 330.367 103.282C331.362 101.609 331.859 99.7559 331.859 97.7216C331.859 95.6872 331.362 93.8336 330.367 92.1609C329.418 90.4882 328.129 89.1546 326.502 88.16C324.874 87.1654 323.066 86.6681 321.077 86.6681C319.088 86.6681 317.279 87.1654 315.652 88.16C314.024 89.1546 312.713 90.4882 311.719 92.1609C310.769 93.8336 310.295 95.6872 310.295 97.7216C310.295 99.7559 310.769 101.609 311.719 103.282C312.713 104.955 314.024 106.289 315.652 107.283C317.279 108.278 319.088 108.775 321.077 108.775ZM351.639 118.065V77.3778H363.438V118.065H351.639ZM357.539 71.4781C355.776 71.4781 354.284 70.8678 353.063 69.6472C351.842 68.4266 351.232 66.9347 351.232 65.1716C351.232 63.3632 351.842 61.8713 353.063 60.6959C354.284 59.4753 355.776 58.865 357.539 58.865C359.347 58.865 360.839 59.4753 362.014 60.6959C363.235 61.8713 363.845 63.3632 363.845 65.1716C363.845 66.9347 363.235 68.4266 362.014 69.6472C360.839 70.8678 359.347 71.4781 357.539 71.4781Z" fill="black"/>
<path d="M307.695 48.4839C307.855 48.6437 308.008 48.815 308.168 48.9976C308.039 48.8021 307.874 48.6366 307.695 48.4839Z" fill="#4AB7C3"/>
<path d="M281.625 30.9851C282.37 46.8229 289.388 57.9857 291.513 60.1134C293.641 62.2384 294.437 60.2191 295.182 57.9857C295.354 57.4733 295.653 56.814 296.043 56.0962C296.408 55.4197 296.856 54.6891 297.352 53.9655C298.626 52.1174 300.227 50.3279 301.666 49.6828C304.272 48.5112 306.823 50.0011 306.823 50.0011C301.72 50.5847 299.702 54.4793 299.702 59.5826C299.702 64.6859 296.084 70.4271 292.365 68.088C288.646 65.7476 286.095 61.923 283.327 56.393C280.563 50.8645 275.671 36.5108 275.46 28.8573C275.249 21.2023 276.522 14.0811 279.607 8.02171C282.691 1.95942 294.121 3.28804 299.486 8.02171C304.857 12.7525 314.372 11.4239 314.372 11.4239C311.554 14.4294 307.24 16.1847 301.947 14.1354C301.25 13.8657 300.535 13.5303 299.809 13.125C293.534 9.61434 288.859 7.80622 286.2 9.2961C283.542 10.7846 280.884 15.1429 281.625 30.9851Z" fill="#FF66BF"/>
<path d="M335.428 4.29805C329.898 -1.37179 321.11 0.472014 317.708 2.88095C314.306 5.29273 312.181 6.99383 306.368 7.70024C305.91 7.75875 309.924 9.13304 314.378 7.64601C314.912 7.46762 315.499 7.51614 316.048 7.43052C316.568 7.34489 317.08 7.24928 317.568 7.13368C322.387 5.99914 336.986 1.74641 334.578 19.8919C332.166 38.0359 329.048 46.4016 327.062 51.9273C325.077 57.4573 322.243 63.4111 318.135 57.1733C317.738 56.5725 317.353 55.9602 316.973 55.3523C313.916 50.4616 311.146 45.6038 305.346 45.4369L305.341 45.4311C304.531 45.384 303.835 45.4426 303.239 45.5667C302.979 45.6195 302.736 45.6852 302.518 45.7622C302.512 45.7622 302.512 45.7622 302.506 45.7622C300.847 46.3231 300.203 47.3563 300.203 47.3563C300.203 47.3563 305.459 46.5357 307.721 48.4837C307.898 48.6378 308.064 48.8034 308.193 48.9974C308.211 49.0089 308.218 49.0274 308.229 49.0388C308.417 49.31 308.596 49.5283 308.767 49.7067C308.863 49.8052 308.954 49.8894 309.044 49.9607C308.954 49.888 308.861 49.8052 308.766 49.7067C309.658 50.8755 310.538 52.3811 311.33 54.3376C315.016 63.4097 318.701 72.339 324.655 64.2602C330.609 56.1786 336.887 36.1936 339.397 27.2614C341.907 18.3321 340.954 9.96789 335.428 4.29805ZM310.086 50.3004C310.731 50.1762 311.076 49.4199 311.08 49.4113C311.08 49.4127 310.735 50.1777 310.086 50.3004Z" fill="#FF66BF"/>
<path d="M291.562 30.042C291.547 29.5854 291.16 29.5069 290.959 29.5026C289.443 29.4869 288.256 30.7213 288.376 32.0071C288.408 32.3668 288.505 32.7078 288.971 32.6764C289.394 32.6479 289.459 32.3454 289.464 31.9857C289.477 31.1052 289.955 30.6143 290.82 30.6043C291.228 30.6014 291.579 30.5001 291.562 30.042Z" fill="black"/>
<path d="M319.655 31.6446C317.679 33.3842 315.303 34.3261 312.797 34.9597C310.428 35.5577 308.039 35.8773 305.63 35.9459C303.221 35.8773 300.828 35.5577 298.463 34.9597C295.957 34.3261 293.577 33.3842 291.6 31.6446C291.332 31.4048 291.071 31.1594 290.722 31.4648C290.377 31.7616 290.518 32.0941 290.754 32.3667C291.596 33.3443 292.358 34.4117 293.315 35.2608C297.143 38.6516 301.73 40.0302 305.63 40.1073C309.526 40.0316 314.111 38.6516 317.94 35.2608C318.897 34.4117 319.66 33.3443 320.502 32.3667C320.738 32.0941 320.878 31.7616 320.537 31.4648C320.185 31.1594 319.928 31.4048 319.655 31.6446Z" fill="black"/>
<path d="M320.292 29.5021C320.09 29.5064 319.704 29.5849 319.688 30.0416C319.672 30.4997 320.023 30.601 320.432 30.6053C321.296 30.6153 321.774 31.1062 321.787 31.9867C321.793 32.3463 321.857 32.6489 322.281 32.6774C322.746 32.7088 322.842 32.3677 322.876 32.0081C322.995 30.7209 321.809 29.485 320.292 29.5021Z" fill="black"/>
<path d="M314.351 28.1335C313.967 28.1335 313.589 27.9509 313.357 27.6098C312.583 26.4767 311.798 25.8545 311.145 25.8545C311.139 25.8545 311.132 25.8545 311.126 25.8545C310.334 25.8687 309.606 26.7478 309.394 27.0861C309.04 27.6441 308.299 27.8182 307.74 27.4671C307.179 27.1175 307.003 26.3825 307.35 25.8188C307.495 25.5819 308.838 23.5026 311.063 23.4484C312.619 23.4099 314.047 24.3546 315.343 26.2512C315.717 26.7992 315.577 27.5484 315.028 27.9223C314.821 28.065 314.584 28.1335 314.351 28.1335Z" fill="black"/>
<path d="M296.904 28.1339C296.67 28.1339 296.434 28.0668 296.228 27.9241C295.68 27.5488 295.538 26.801 295.912 26.253C297.208 24.3564 298.639 23.4173 300.192 23.4502C302.417 23.503 303.76 25.5837 303.905 25.8206C304.254 26.3871 304.077 27.1278 303.511 27.4746C302.946 27.8199 302.21 27.6473 301.86 27.085C301.646 26.7468 300.92 25.8677 300.128 25.8548C300.122 25.8548 300.115 25.8548 300.109 25.8548C299.456 25.8548 298.672 26.477 297.897 27.6101C297.665 27.9512 297.288 28.1339 296.904 28.1339Z" fill="black"/>
</svg>
